<svg xmlns="http://www.w3.org/2000/svg" width="349" height="116" viewBox="0 0 349 116" fill="none">
<path fill-rule="evenodd" clip-rule="evenodd" d="M38.7179 0.24829C23.7681 1.92914 10.6587 11.2113 4.25699 24.6489C-1.40685 36.5371 -1.4001 50.0955 4.27522 61.8556C9.95887 73.6326 20.2146 82.0049 32.8945 85.2187C37.1505 86.2974 38.9995 86.4313 49.6917 86.4358L59.6526 86.4399V72.0317V57.6232L74.1155 57.6813L88.5784 57.7391V72.1458V86.5524L74.1139 86.6103L59.6492 86.6684L59.7073 101.017L59.7651 115.366L67.1935 115.432C79.3559 115.541 84.2731 115.021 90.1145 113.006C101.283 109.155 110.007 101.426 115.146 90.8294C119.281 82.3045 120.456 73.1086 118.625 63.6182C117.712 58.8923 115.299 52.9032 112.652 48.7996C109.342 43.6665 104.04 38.4651 98.9332 35.3391C93.352 31.9229 86.7713 29.7169 80.1694 29.0492C78.8872 28.9193 73.7465 28.8133 68.7454 28.8133H59.6526V14.4066V0L50.0294 0.0292635C44.7367 0.0452459 39.6465 0.143841 38.7179 0.24829ZM30.9894 28.9634C30.9068 29.0458 30.8393 35.5288 30.8393 43.3701V57.6266H45.2459H59.6526V43.2199V28.8133H45.3961C37.5548 28.8133 31.0718 28.8808 30.9894 28.9634Z" fill="#00DD88"/>
<g clip-path="url(#cxlogo-clip)">
<path fill-rule="evenodd" clip-rule="evenodd" d="M288.184 33.9345C288.28 45.65 288.31 45.8952 289.845 47.6892C291.424 49.5335 294.982 50.2903 299.895 49.8264L301.414 49.683V46.9878V44.2926L299.782 44.4333C297.77 44.6069 296.506 44.3255 295.843 43.557C295.351 42.9866 295.336 42.8288 295.336 38.03V33.0904H298.375H301.414V30.9519V28.8134H298.375H295.336V26.1121V23.4109H291.717H288.098L288.184 33.9345ZM142.828 28.4557C139.687 29.07 136.786 30.5836 135.367 32.3493C132.035 36.4962 132.352 43.0838 136.059 46.7026C140.864 51.3935 151.352 51.2769 155.733 46.484C156.937 45.1663 157.881 43.4235 158.14 42.0382L158.298 41.1941H155.125H151.951L151.599 42.0382C150.735 44.1087 148.798 45.2885 146.229 45.3079C144.118 45.3238 142.887 44.9486 141.786 43.9548C140.274 42.5888 139.903 41.6457 139.903 39.1682C139.903 37.3921 139.988 36.8716 140.401 36.0971C141.031 34.918 142.455 33.69 143.584 33.3517C144.71 33.0145 147.256 33.0163 148.387 33.3551C149.632 33.7281 151.158 35.1449 151.621 36.3584L152.006 37.3673H155.157H158.307L158.178 36.5716C157.988 35.4006 157.001 33.376 156.063 32.2309C153.543 29.1558 147.729 27.4974 142.828 28.4557ZM171.567 28.3535C166.946 29.0851 163.384 31.5932 162.072 35.0389C161.453 36.6652 161.232 39.8637 161.612 41.6936C162.433 45.6493 165.327 48.4208 169.953 49.6814C172.232 50.3022 176.756 50.2379 178.952 49.5536C181.272 48.8303 182.65 48.0906 183.959 46.8667C186.074 44.8885 187.061 42.4376 187.061 39.1682C187.061 33.7925 184.083 30.1334 178.547 28.7087C176.851 28.272 173.242 28.0883 171.567 28.3535ZM202.309 28.3684C200.925 28.7182 199.623 29.4693 198.485 30.5728L197.416 31.6103V30.2117V28.8134H193.927H190.438V39.2807V49.748H193.912H197.386L197.458 42.9386C197.524 36.5574 197.558 36.0732 197.996 35.2378C199.218 32.9094 203.134 32.632 204.725 34.7613C205.156 35.3382 205.189 35.7824 205.295 42.5044L205.407 49.6355H208.896H212.386L212.498 42.617C212.605 35.9739 212.635 35.5654 213.075 34.9774C214.015 33.7193 214.647 33.428 216.437 33.428C218.305 33.428 219.019 33.79 219.814 35.1399C220.233 35.8517 220.269 36.3784 220.332 42.8261L220.401 49.748H223.888H227.376L227.309 41.588L227.242 33.428L226.609 32.1382C225.557 29.9959 223.68 28.781 220.71 28.3193C217.775 27.8628 214.876 28.735 212.764 30.7103L211.665 31.7384L210.449 30.5327C209.599 29.689 208.835 29.1794 207.905 28.8354C206.399 28.2779 203.592 28.0438 202.309 28.3684ZM243.666 28.4521C242.128 28.8255 240.679 29.554 239.55 30.5203L238.61 31.3246V30.069V28.8134H235.007H231.403L231.461 42.4884L231.519 56.1635H235.008H238.498L238.559 51.5833L238.62 47.0029L239.505 47.8029C241.819 49.8937 245.157 50.6397 248.769 49.8741C250.758 49.4527 252.38 48.5993 253.867 47.1927C258.161 43.1322 258.117 35.1624 253.777 31.0583C251.292 28.708 247.08 27.6226 243.666 28.4521ZM314.358 28.2635C314.11 28.3206 313.35 28.4789 312.669 28.6148C310.789 28.9903 308.33 30.2192 307.035 31.4304C304.876 33.4492 303.89 35.876 303.89 39.1682C303.89 42.4565 304.877 44.8874 307.027 46.8989C310.768 50.3984 318.084 51.2144 323.22 48.7051C324.834 47.9164 326.706 46.0516 327.418 44.5225C328.364 42.4907 328.433 42.5443 324.881 42.5474L321.786 42.5503L321.292 43.3125C320.987 43.7837 320.316 44.3111 319.533 44.694C318.459 45.2199 317.988 45.3121 316.425 45.3052C313.668 45.2926 312.053 44.4741 311.012 42.5611C309.942 40.5955 309.255 40.7439 319.422 40.7439H328.427V39.4239C328.427 34.127 325.495 30.2518 320.323 28.7137C319.105 28.3515 315.239 28.0597 314.358 28.2635ZM260.261 36.6592L260.333 44.5049L261.121 46.0473C261.642 47.0686 262.229 47.8338 262.858 48.3123C266.401 51.0097 272.611 50.6926 275.838 47.6496L276.653 46.8811V48.3202V49.7595L280.198 49.6974L283.743 49.6355L283.802 39.2244L283.861 28.8134H280.257H276.653V35.4796C276.653 41.7863 276.628 42.1902 276.191 42.9681C275.43 44.3212 274.374 44.8896 272.438 44.9873C270.34 45.0933 269.017 44.6341 268.151 43.4992L267.536 42.6931L267.47 35.7533L267.405 28.8134H263.797H260.189L260.261 36.6592ZM171.698 33.4116C170.344 33.8947 169.358 34.7948 168.691 36.1581C168.175 37.2134 168.071 37.7194 168.077 39.1427C168.092 43.0805 170.309 45.3052 174.216 45.3052C178.198 45.3052 180.367 43.1237 180.367 39.1204C180.367 37.6854 180.261 37.162 179.758 36.134C178.718 34.0086 177.076 33.1102 174.23 33.1102C173.302 33.1102 172.162 33.2457 171.698 33.4116ZM241.649 33.3621C240.932 33.6126 239.593 34.5303 239.104 35.1071C238.297 36.0572 237.857 37.5015 237.855 39.213C237.851 41.4757 238.643 43.1527 240.23 44.2438C242.625 45.8895 246.546 45.6964 248.552 43.8339C249.786 42.6886 250.202 41.5117 250.202 39.1682C250.202 37.3921 250.117 36.8716 249.704 36.0971C249.074 34.918 247.65 33.69 246.521 33.3517C245.457 33.033 242.573 33.039 241.649 33.3621ZM313.849 33.3909C312.548 33.8625 310.648 35.7198 310.644 36.5232C310.644 36.6159 313.125 36.692 316.158 36.692C319.859 36.692 321.673 36.6144 321.673 36.4557C321.673 35.5773 320.217 33.9806 318.923 33.4399C317.928 33.0242 314.94 32.9951 313.849 33.3909ZM336.522 38.921C335.26 39.1758 333.8 40.0987 333.002 41.1473C329.674 45.515 333.878 51.609 339.167 50.0848C340.766 49.6238 342.57 47.92 343.007 46.4579C344.276 42.2077 340.719 38.0737 336.522 38.921ZM212.498 74.7289V88.4659H216.1H219.701V81.8031C219.701 74.2682 219.745 74.0334 221.352 72.97C222.108 72.4696 222.556 72.359 224.074 72.2983C226.416 72.2044 227.652 72.7692 228.424 74.2857C228.915 75.2498 228.931 75.4808 228.931 81.8731V88.4659H232.42H235.909V80.7084C235.909 73.4467 235.879 72.8721 235.449 71.7211C233.534 66.604 225.233 65.4222 220.485 69.5912L219.711 70.2708L219.65 65.6933L219.589 61.1158L216.043 61.0539L212.498 60.9918V74.7289ZM142.057 67.4306C135.883 68.7695 132.34 73.7128 133.217 79.7627C133.716 83.2016 135.56 85.8059 138.642 87.4259C142.539 89.4735 148.267 89.5662 152.326 87.6474C154.493 86.6232 156.538 84.2623 157.225 81.9942L157.378 81.4877H154.227H151.075L150.595 82.1621C149.724 83.3855 148.282 84.0359 146.198 84.1453C144.177 84.2513 143.101 84.0111 141.772 83.1575C140.976 82.6463 140.006 81.2687 139.685 80.1933L139.534 79.6869H148.538C158.82 79.6869 157.973 79.8807 157.694 77.5916C157.137 73.006 155.307 70.1528 151.845 68.469C149.079 67.1243 145.312 66.7245 142.057 67.4306ZM193.155 67.326C187.04 68.5255 183.46 72.4599 183.46 77.979C183.46 84.7031 188.419 88.953 196.291 88.976C200.459 88.9881 203.635 87.8646 205.935 85.5645C207.196 84.304 208.361 82.1853 208.599 80.723L208.73 79.912L205.606 79.9153L202.481 79.9185L201.918 81.0865C201.266 82.4401 199.886 83.6014 198.476 83.9825C197.099 84.3548 194.344 84.1381 193.252 83.5715C191.409 82.6161 190.426 81.0318 190.263 78.7569C190.046 75.7257 191.065 73.657 193.319 72.5517C194.406 72.0189 194.877 71.9241 196.403 71.9313C199.199 71.9444 201.002 72.9819 201.962 75.1285L202.39 76.0852H205.559H208.728L208.587 75.3536C208.31 73.915 206.908 71.4546 205.746 70.3678C204.382 69.0914 201.916 67.8752 199.773 67.4212C198.072 67.0608 194.75 67.0131 193.155 67.326ZM248.402 67.224C247.178 67.4119 245.286 68.0127 244.247 68.544C242.458 69.459 241.205 71.1746 240.754 73.3277L240.6 74.0593H243.728H246.856L247.226 73.2815C247.779 72.1225 248.715 71.7366 251.24 71.6272C254.67 71.4784 256.034 72.2956 256.315 74.6682L256.447 75.7842L253.41 75.6811C246.536 75.4481 242.047 76.7301 240.501 79.3672C239.992 80.2354 239.858 80.7764 239.779 82.283C239.72 83.4193 239.79 84.4609 239.963 84.9835C241.413 89.376 250.656 90.5143 255.268 86.8686L256.393 85.9792V87.2227V88.4659H259.896H263.398L263.329 80.6435C263.263 73.2601 263.233 72.7645 262.788 71.8082C261.272 68.5469 258.543 67.3142 252.567 67.1918C250.648 67.1526 248.774 67.167 248.402 67.224ZM279.961 67.3278C278.537 67.6627 276.746 68.6192 275.772 69.5637L274.852 70.4571V68.9942V67.5312H271.363H267.874V77.9986V88.4659H271.363H274.852V81.9525C274.852 75.2021 274.92 74.6218 275.824 73.6356C277.676 71.6142 282.116 71.8438 283.573 74.0363C284.073 74.7881 284.081 74.9167 284.081 81.6336V88.4659H287.696H291.311L291.232 80.6435C291.164 73.8053 291.103 72.6881 290.752 71.7643C289.947 69.6472 287.781 67.9191 285.181 67.3196C283.991 67.0452 281.143 67.0495 279.961 67.3278ZM302.877 67.2974C298.152 68.3175 295.464 71.1739 294.874 75.8004C294.376 79.7123 296.041 83.456 299.151 85.4196C299.648 85.7334 300.842 86.2545 301.804 86.5773C303.412 87.1175 303.778 87.1565 306.366 87.0622C309.407 86.9516 310.937 86.5388 312.454 85.42C313.373 84.7416 313.445 84.8667 313.239 86.7866C313.045 88.6068 312.441 89.5363 310.981 90.2667C309.96 90.777 309.593 90.8295 307.042 90.829C303.972 90.8286 302.921 90.5886 302.083 89.6974C301.575 89.1561 301.475 89.1412 298.332 89.1412H295.103L295.251 89.7602C295.901 92.4622 298.5 94.5023 302.396 95.3678C304.608 95.859 310.137 95.8403 312.546 95.3334C317.002 94.3963 319.422 92.2546 320.107 88.6435C320.226 88.0168 320.323 83.0101 320.323 77.5178V67.5312H316.834H313.345V68.8819C313.345 69.6247 313.263 70.2325 313.164 70.2325C313.064 70.2325 312.649 69.8885 312.242 69.468C311.834 69.0475 310.781 68.3716 309.9 67.9659C308.48 67.3113 308.045 67.2211 306.039 67.1657C304.795 67.1312 303.373 67.1904 302.877 67.2974ZM332.945 67.416C330.793 67.9045 328.372 69.1455 326.952 70.4878C322.957 74.2661 322.915 81.706 326.867 85.5551C329.207 87.8343 332.503 88.9906 336.643 88.9839C342.412 88.9746 346.392 86.6561 347.881 82.4369L348.216 81.4877H345.09H341.963L341.483 82.1621C340.616 83.3795 339.168 84.0361 337.114 84.1432C334.912 84.2578 333.707 83.9629 332.448 83.0011C331.58 82.3372 330.474 80.6519 330.459 79.9682C330.454 79.7476 332.4 79.6869 339.457 79.6869H348.461V77.9097C348.461 75.6814 347.861 73.661 346.672 71.8798C345.341 69.8867 343.741 68.7464 340.818 67.7071C339.143 67.1112 334.968 66.957 332.945 67.416ZM158.061 67.7161C158.102 67.8178 160.031 70.1224 162.348 72.8372C164.664 75.5521 166.575 77.8595 166.594 77.9646C166.614 78.0697 164.718 80.3941 162.382 83.13C160.047 85.866 158.102 88.1856 158.061 88.2851C158.019 88.3846 159.797 88.4659 162.01 88.4659H166.035L168.456 85.6454L170.877 82.8246L173.285 85.6447L175.694 88.4648L179.8 88.4652L183.907 88.4659L179.463 83.2608C177.018 80.398 175.018 78.0341 175.018 78.0076C175.018 77.9812 176.968 75.6717 179.352 72.8757C181.735 70.0794 183.685 67.7329 183.685 67.6614C183.685 67.5898 181.884 67.5312 179.682 67.5312H175.68L173.323 70.3381C172.027 71.8816 170.916 73.1408 170.854 73.1363C170.792 73.1316 169.686 71.8688 168.397 70.3295L166.052 67.5312H162.019C159.8 67.5312 158.019 67.6145 158.061 67.7161ZM143.861 72.0394C142.648 72.2933 141.372 73.1093 140.596 74.1279C139.431 75.6546 139.367 75.635 145.545 75.635H151.075L150.925 75.1285C150.659 74.2317 149.586 73.0598 148.555 72.5421C147.397 71.9599 145.308 71.7364 143.861 72.0394ZM305.724 72.0365C304.186 72.3604 302.855 73.2635 302.152 74.4593C301.609 75.3822 301.527 75.7599 301.527 77.3233C301.527 78.8866 301.609 79.2643 302.152 80.1873C302.929 81.5095 304.189 82.2751 306.143 82.6125C307.805 82.8995 309.885 82.662 311.207 82.0347C314.335 80.5506 314.968 75.7516 312.341 73.4391C311.793 72.9571 310.935 72.4399 310.434 72.2899C309.173 71.912 306.897 71.7895 305.724 72.0365ZM334.491 72.1155C333.926 72.2677 333.132 72.6287 332.726 72.9178C332.002 73.433 330.678 75.0666 330.678 75.4436C330.678 75.549 333.21 75.635 336.305 75.635C339.4 75.635 341.933 75.5803 341.933 75.5134C341.933 75.4466 341.728 74.9894 341.477 74.4975C340.387 72.3624 337.379 71.3366 334.491 72.1155ZM249.579 79.9205C247.561 80.26 246.499 81.2385 246.492 82.7647C246.487 83.8006 247.551 84.7936 248.88 84.9928C251.369 85.366 253.774 84.7022 255.464 83.1751C256.33 82.3933 256.393 82.2542 256.393 81.148C256.393 80.2726 256.3 79.9241 256.037 79.8235C255.539 79.6322 250.876 79.7022 249.579 79.9205Z" fill="white"/>
</g>
<defs>
<clipPath id="cxlogo-clip">
<rect width="223.528" height="115.478" fill="white" transform="translate(124.933)"/>
</clipPath>
</defs>
</svg>
